<svg width="45" height="42" viewBox="0 0 45 42" fill="none" xmlns="http://www.w3.org/2000/svg">
<path d="M42.1352 11.4594C42.1192 11.2885 41.9409 11.1562 41.7273 11.1562H34.3637V9.51562C34.3637 4.26858 29.0414 0 22.5 0C15.9586 0 10.6363 4.26858 10.6363 9.51562V11.1562H3.27268C3.05914 11.1562 2.88077 11.2885 2.86482 11.4594L0.00117289 41.6469C-0.00741804 41.7378 0.0314457 41.8277 0.109173 41.8947C0.186492 41.9619 0.29531 42 0.409037 42H44.591C44.7047 42 44.8135 41.9619 44.8908 41.895C44.9682 41.8281 45.0074 41.7382 44.9988 41.6473L42.1352 11.4594ZM13.9091 9.51562C13.9091 5.71627 17.7627 2.625 22.5 2.625C27.2373 2.625 31.0909 5.71627 31.0909 9.51562V11.1562H13.9091V9.51562ZM12.2727 20.3438C10.0166 20.3438 8.18178 18.8718 8.18178 17.0625C8.18178 15.753 8.99997 14.573 10.6363 14.0552V17.0625C10.6363 17.7863 11.3707 18.375 12.2727 18.375C13.1748 18.375 13.9091 17.7863 13.9091 17.0625V14.0572C15.5454 14.575 16.3636 15.7638 16.3636 17.0625C16.3636 18.8718 14.5288 20.3438 12.2727 20.3438ZM32.7273 20.3438C30.4712 20.3438 28.6364 18.8718 28.6364 17.0625C28.6364 15.753 29.4546 14.573 31.0909 14.0552V17.0625C31.0909 17.7863 31.8253 18.375 32.7273 18.375C33.6294 18.375 34.3637 17.7863 34.3637 17.0625V14.0572C36 14.575 36.8182 15.7638 36.8182 17.0625C36.8182 18.8718 34.9834 20.3438 32.7273 20.3438Z" fill="black"/>
</svg>
